<svg width="49" height="48" viewBox="0 0 49 48" fill="none" xmlns="http://www.w3.org/2000/svg">
<rect x="0.5" width="48" height="48" rx="24" fill="#F2F9FF"/>
<path d="M21.4998 28.9997L23.5206 31.8801C23.9019 32.4235 24.6971 32.4514 25.1156 31.9361L25.8904 30.9818L27.4998 28.9996" stroke="#0370D5" stroke-width="1.5" stroke-linecap="round" stroke-linejoin="round"/>
<path d="M21.3235 29H18.5C16.8431 29 15.5 27.6569 15.5 26V19C15.5 17.3431 16.8431 16 18.5 16H30.5C32.1569 16 33.5 17.3431 33.5 19V26C33.5 27.6569 32.1569 29 30.5 29H27.6765" stroke="#0370D5" stroke-width="1.5" stroke-linecap="round" stroke-linejoin="round"/>
<circle cx="19" cy="22.5" r="1.5" fill="#0370D5"/>
<circle cx="24.5" cy="22.5" r="1.5" fill="#0370D5"/>
<circle cx="30" cy="22.5" r="1.5" fill="#0370D5"/>
</svg>
