<svg width="184" height="212" viewBox="0 0 184 212" fill="none" xmlns="http://www.w3.org/2000/svg">
<path d="M23 80.5C23 74.1487 28.1487 69 34.5 69H149.5C155.851 69 161 74.1487 161 80.5V138C161 150.703 150.703 161 138 161H46C33.2975 161 23 150.703 23 138V80.5Z" stroke="white" stroke-width="11.5" stroke-linecap="round" stroke-linejoin="round"/>
<path d="M160.23 76.667L148.206 38.6952C146.692 33.9153 142.256 30.667 137.243 30.667H46.7515C41.7377 30.667 37.3017 33.9153 35.7881 38.6952L23.7637 76.667" stroke="white" stroke-width="11.5" stroke-linecap="round" stroke-linejoin="round"/>
<path d="M75.7454 116.153L92.0088 132.416M108.272 116.153L92.0088 132.416M92.0088 132.416V89.3183" stroke="white" stroke-width="11.5" stroke-linecap="round" stroke-linejoin="round"/>
<circle cx="91.9997" cy="177" r="29.1667" fill="#12B413"/>
<path d="M78.875 177L86.5938 184.719C87.1633 185.289 88.0867 185.289 88.6562 184.719L94.9167 178.459L102.208 171.167" stroke="white" stroke-width="4.375" stroke-linecap="round" stroke-linejoin="round"/>
<path d="M78.875 177L86.5938 184.719C87.1633 185.289 88.0867 185.289 88.6562 184.719L94.9167 178.459L102.208 171.167" stroke="white" stroke-width="4.375" stroke-linecap="round" stroke-linejoin="round"/>
</svg>
