<svg width="24" height="24" viewBox="0 0 24 24" fill="none" xmlns="http://www.w3.org/2000/svg">
<circle cx="12" cy="12" r="9" stroke="#43495C" stroke-width="1.5"/>
<circle cx="12" cy="12" r="5" stroke="#43495C" stroke-width="1.5"/>
<path d="M11.25 18C11.25 18.4142 11.5858 18.75 12 18.75C12.4142 18.75 12.75 18.4142 12.75 18L11.25 18ZM11.25 16.5L11.25 18L12.75 18L12.75 16.5L11.25 16.5Z" fill="#43495C"/>
<path d="M12.75 6C12.75 5.58579 12.4142 5.25 12 5.25C11.5858 5.25 11.25 5.58579 11.25 6L12.75 6ZM12.75 7L12.75 6L11.25 6L11.25 7L12.75 7Z" fill="#43495C"/>
<path d="M6 12.75C5.58579 12.75 5.25 12.4142 5.25 12C5.25 11.5858 5.58579 11.25 6 11.25L6 12.75ZM7 12.75L6 12.75L6 11.25L7 11.25L7 12.75Z" fill="#43495C"/>
<path d="M18 12.75C18.4142 12.75 18.75 12.4142 18.75 12C18.75 11.5858 18.4142 11.25 18 11.25L18 12.75ZM17 12.75L18 12.75L18 11.25L17 11.25L17 12.75Z" fill="#43495C"/>
<circle cx="12" cy="12" r="2" fill="#43495C"/>
</svg>
