<svg width="92" height="92" viewBox="0 0 92 92" fill="none" xmlns="http://www.w3.org/2000/svg">
<path d="M86.9 0H4.51C2.0192 0 0 2.0192 0 4.51V86.9C0 89.3908 2.0192 91.41 4.51 91.41H86.9C89.3908 91.41 91.41 89.3908 91.41 86.9V4.51C91.41 2.0192 89.3908 0 86.9 0Z" fill="#0A0A0B"/>
<path d="M72.8 21.76C64.8 21.76 56.86 21.76 48.89 21.76C48.14 21.76 47.89 22.19 47.67 22.67C44.0833 28.89 40.4867 35.11 36.88 41.33C36.7 41.64 36.63 42.09 36.14 42.2C33.29 37.26 30.44 32.33 27.51 27.2C29.44 27.2 31.12 27.2 32.79 27.2C33.1008 27.1607 33.4159 27.2245 33.6869 27.3817C33.9579 27.5389 34.1698 27.7807 34.29 28.07C35.41 30.12 36.62 32.12 37.86 34.26C38.86 32.51 39.77 30.9 40.72 29.34C41.05 28.8 40.82 28.43 40.58 28.02C39.5 26.15 38.38 24.31 37.35 22.42C37.245 22.1897 37.0688 21.9993 36.8473 21.8769C36.6258 21.7544 36.3708 21.7065 36.12 21.74C30.43 21.74 24.74 21.74 19.06 21.74C18.77 21.74 18.43 21.61 18.13 21.95L36.13 53.18C36.62 52.9 36.73 52.45 36.95 52.08C41.53 44.16 46.1 36.2267 50.66 28.28C50.8272 27.913 51.1053 27.6075 51.455 27.4066C51.8048 27.2058 52.2087 27.1195 52.61 27.16C58.1 27.16 63.61 27.16 69.07 27.16C69.53 27.16 70.07 27.32 70.37 26.79L73.24 21.79C73.0941 21.7707 72.9472 21.7607 72.8 21.76ZM35.68 25.56H35.76C35.7631 25.5932 35.7631 25.6267 35.76 25.66H35.68C35.6763 25.6268 35.6763 25.5932 35.68 25.56V25.56ZM26.68 23.56C26.5117 23.4839 26.3712 23.3574 26.278 23.1979C26.1849 23.0385 26.1436 22.854 26.16 22.67C26.134 22.8592 26.1695 23.0518 26.2613 23.2193C26.3532 23.3867 26.4965 23.5202 26.67 23.6L26.68 23.56ZM27.27 23.98C27.2215 23.9281 27.1679 23.8812 27.11 23.84C27.1654 23.888 27.2156 23.9417 27.26 24L27.27 23.98ZM26.94 23.72L26.82 23.65L26.94 23.72ZM26.19 22.48V22.64V22.48Z" fill="white"/>
<path d="M63 29.9C62.7646 29.8845 62.5306 29.9465 62.3338 30.0766C62.137 30.2066 61.9881 30.3975 61.91 30.62C61 32.29 60 33.94 59 35.6L43 63.32C42.76 63.74 42.37 64.1 42.76 64.71C43.76 66.27 44.61 67.88 45.65 69.71L68.65 29.94C66.59 29.91 64.79 29.94 63 29.9Z" fill="#3BA3F2"/>
<path d="M53.43 29.9C52.92 29.9 52.74 30.19 52.53 30.54C47.75 38.8467 42.9633 47.14 38.17 55.42C37.96 55.78 37.8 56.07 38.06 56.5C39.06 58.13 39.97 59.79 40.98 61.5L59.23 29.91C57.17 29.91 55.3 29.93 53.43 29.9Z" fill="#3BA3F2"/>
</svg>
