<svg width="113" height="48" viewBox="0 0 113 48" fill="none" xmlns="http://www.w3.org/2000/svg">
<g clip-path="url(#clip0)">
<path d="M32.8835 11H9.29142C8.57819 11 8 11.5782 8 12.2914V35.8835C8 36.5967 8.57819 37.1749 9.29142 37.1749H32.8835C33.5967 37.1749 34.1749 36.5967 34.1749 35.8835V12.2914C34.1749 11.5782 33.5967 11 32.8835 11Z" fill="#0A0A0B"/>
<path d="M28.8459 17.2305C26.5552 17.2305 24.2816 17.2305 21.9994 17.2305C21.7846 17.2305 21.7131 17.3536 21.6501 17.4911C20.623 19.2721 19.5931 21.0532 18.5604 22.8343C18.5088 22.923 18.4888 23.0519 18.3485 23.0834C17.5324 21.6689 16.7163 20.2572 15.8773 18.7882C16.43 18.7882 16.911 18.7882 17.3892 18.7882C17.4782 18.777 17.5685 18.7952 17.6461 18.8402C17.7237 18.8852 17.7843 18.9545 17.8188 19.0373C18.1395 19.6243 18.4859 20.197 18.841 20.8098C19.1274 20.3087 19.3879 19.8477 19.66 19.401C19.7545 19.2464 19.6886 19.1404 19.6199 19.023C19.3106 18.4875 18.9899 17.9607 18.695 17.4195C18.6649 17.3535 18.6144 17.299 18.551 17.264C18.4876 17.2289 18.4146 17.2152 18.3428 17.2248C16.7135 17.2248 15.0842 17.2248 13.4577 17.2248C13.3747 17.2248 13.2773 17.1875 13.1914 17.2849L18.3456 26.2275C18.4859 26.1473 18.5174 26.0184 18.5804 25.9125C19.8919 23.6446 21.2005 21.373 22.5062 19.0975C22.5541 18.9924 22.6337 18.9049 22.7339 18.8474C22.834 18.7899 22.9497 18.7652 23.0646 18.7768C24.6366 18.7768 26.2144 18.7768 27.7779 18.7768C27.9096 18.7768 28.0642 18.8226 28.1501 18.6708L28.9719 17.2391C28.9302 17.2336 28.8881 17.2307 28.8459 17.2305ZM18.2168 18.3186H18.2397C18.2406 18.3281 18.2406 18.3377 18.2397 18.3472H18.2168C18.2157 18.3377 18.2157 18.3281 18.2168 18.3186ZM15.6397 17.7459C15.5915 17.7241 15.5512 17.6879 15.5246 17.6422C15.4979 17.5966 15.4861 17.5437 15.4908 17.4911C15.4833 17.5452 15.4935 17.6004 15.5198 17.6483C15.5461 17.6963 15.5871 17.7345 15.6368 17.7574L15.6397 17.7459ZM15.8086 17.8662C15.7947 17.8513 15.7794 17.8379 15.7628 17.8261C15.7786 17.8399 15.793 17.8552 15.8057 17.8719L15.8086 17.8662ZM15.7141 17.7917L15.6798 17.7717L15.7141 17.7917ZM15.4994 17.4367V17.4825V17.4367Z" fill="white"/>
<path d="M18.2318 18.3598H18.208C18.2067 18.349 18.2067 18.338 18.208 18.3271C18.208 18.3271 18.2318 18.3271 18.2318 18.3271C18.2329 18.338 18.2329 18.349 18.2318 18.3598Z" fill="#20BC2E"/>
<path d="M26.0403 19.5622C25.9729 19.5578 25.9059 19.5755 25.8495 19.6127C25.7932 19.65 25.7506 19.7046 25.7282 19.7684C25.4676 20.2466 25.1813 20.719 24.8949 21.1944L20.3134 29.1319C20.2447 29.2521 20.133 29.3552 20.2447 29.5299C20.531 29.9766 20.7744 30.4376 21.0722 30.9616L27.6582 19.5736C27.0683 19.5651 26.5529 19.5736 26.0403 19.5622Z" fill="#3BA3F2"/>
<path d="M23.2991 19.5615C23.1531 19.5615 23.1015 19.6446 23.0414 19.7448C21.6727 22.1234 20.302 24.4981 18.9295 26.8691C18.8694 26.9722 18.8235 27.0552 18.898 27.1783C19.1843 27.6451 19.4449 28.1204 19.7341 28.6101L24.9599 19.5644C24.3701 19.5644 23.8346 19.5701 23.2991 19.5615Z" fill="#3BA3F2"/>
<path d="M48.0088 30.2085H48.0546L53.4465 15.7881H55.2476L48.8936 32.3961H47.1154L40.7871 15.7881H42.614L48.0088 30.2085Z" fill="#57545D"/>
<path d="M62.9219 32.3874H61.2324V15.7793H62.9219V32.3874Z" fill="#57545D"/>
<path d="M76.3568 32.3876H74.6673V17.3H69.1094V15.7881H81.9148V17.3H76.3568V32.3876Z" fill="#57545D"/>
<path d="M89.791 30.8869H98.6677V32.3874H88.1016V15.7793H98.3957V17.2998H89.791V22.9981H97.8345V24.4871H89.791V30.8869Z" fill="#57545D"/>
</g>
<defs>
<clipPath id="clip0">
<rect width="90.68" height="26.1749" fill="white" transform="translate(8 11)"/>
</clipPath>
</defs>
</svg>
