<svg width="130" height="130" viewBox="0 0 130 130" fill="none" xmlns="http://www.w3.org/2000/svg">
<path d="M16.25 56.875C16.25 52.3877 19.8877 48.75 24.375 48.75H105.625C110.112 48.75 113.75 52.3877 113.75 56.875V97.5C113.75 106.475 106.475 113.75 97.5 113.75H32.5C23.5254 113.75 16.25 106.475 16.25 97.5V56.875Z" stroke="#DCEDFE" stroke-width="8.125" stroke-linecap="round" stroke-linejoin="round"/>
<path d="M113.206 54.167L104.71 27.3391C103.641 23.962 100.507 21.667 96.9643 21.667H33.0305C29.4881 21.667 26.354 23.962 25.2846 27.3391L16.7891 54.167" stroke="#DCEDFE" stroke-width="8.125" stroke-linecap="round" stroke-linejoin="round"/>
<path d="M53.5155 82.0643L65.006 93.5548M76.4965 82.0643L65.006 93.5548M65.006 93.5548V63.1053" stroke="#DCEDFE" stroke-width="8.125" stroke-linecap="round" stroke-linejoin="round"/>
</svg>
