<svg width="24" height="24" viewBox="0 0 24 24" fill="none" xmlns="http://www.w3.org/2000/svg">
<path d="M3 10.5C3 9.67157 3.67157 9 4.5 9H19.5C20.3284 9 21 9.67157 21 10.5V18C21 19.6569 19.6569 21 18 21H6C4.34315 21 3 19.6569 3 18V10.5Z" stroke="white" stroke-width="1.5" stroke-linecap="round" stroke-linejoin="round"/>
<path d="M20.8996 10L19.3312 5.04716C19.1338 4.4237 18.5552 4 17.9012 4H6.09802C5.44404 4 4.86544 4.4237 4.66801 5.04716L3.09961 10" stroke="white" stroke-width="1.5" stroke-linecap="round" stroke-linejoin="round"/>
<path d="M9.88081 15.1503L12.0021 17.2717M14.1234 15.1503L12.0021 17.2717M12.0021 17.2717V11.6502" stroke="white" stroke-width="1.5" stroke-linecap="round" stroke-linejoin="round"/>
</svg>
