<svg width="40" height="40" viewBox="0 0 40 40" fill="none" xmlns="http://www.w3.org/2000/svg">
<rect width="40" height="40" rx="20" fill="#F2F9FF"/>
<path d="M21 11H19.0623C14.7813 11 11.469 14.7521 12 19C12.4189 22.3514 14.9439 24.2989 18.3985 26.9009C19.772 27.9354 21.4189 28.5541 23.1355 28.655L23.7064 28.6886C26.5783 28.8575 29 26.5741 29 23.6972V19C29 14.5817 25.4183 11 21 11Z" stroke="#0370D5" stroke-width="1.5"/>
<path d="M28 16H21.7329C20.2236 16 19 17.2236 19 18.7329V18.7329C19 19.8084 19.6307 20.7838 20.6114 21.2251L29 25" stroke="#0370D5" stroke-width="1.5"/>
<circle cx="23" cy="19" r="1" fill="#0370D5"/>
</svg>
