<svg width="40" height="40" viewBox="0 0 40 40" fill="none" xmlns="http://www.w3.org/2000/svg">
<rect width="40" height="40" rx="20" fill="#F2F9FF"/>
<path d="M15 17H25L27.6838 25.0513C28.3313 26.9939 26.8854 29 24.8377 29H15.1623C13.1146 29 11.6687 26.9939 12.3162 25.0513L15 17Z" stroke="#0370D5" stroke-width="1.5"/>
<path d="M13.7263 13.8159C13.4234 13.0585 14.1059 12.2765 14.8974 12.4743L15.5 12.625L17.8119 13.203C17.9362 13.234 18.0652 13.2409 18.192 13.2233L25.2944 12.2369C26.0547 12.1313 26.6456 12.8861 26.3605 13.5988L25.2514 16.3714C25.0996 16.751 24.7319 17 24.323 17H15.677C15.2681 17 14.9004 16.751 14.7486 16.3714L13.7263 13.8159Z" stroke="#0370D5" stroke-width="1.5" stroke-linecap="round" stroke-linejoin="round"/>
<path d="M18 25V21L22 25V21" stroke="#0370D5" stroke-width="1.5" stroke-linecap="round" stroke-linejoin="round"/>
<path d="M17 22.25C16.5858 22.25 16.25 22.5858 16.25 23C16.25 23.4142 16.5858 23.75 17 23.75L17 22.25ZM23 23.75C23.4142 23.75 23.75 23.4142 23.75 23C23.75 22.5858 23.4142 22.25 23 22.25L23 23.75ZM17 23.75L23 23.75L23 22.25L17 22.25L17 23.75Z" fill="#0370D5"/>
</svg>
