<svg width="120" height="120" viewBox="0 0 120 120" fill="none" xmlns="http://www.w3.org/2000/svg">
<path d="M97 15H24.6286C19.5159 15 15.5601 19.481 16.1943 24.5543L20 55C22.4221 74.3767 38.9238 84.367 60.4113 100.885C61.7746 101.933 63.4189 102.554 65.1355 102.655L99.7064 104.689C102.578 104.858 105 102.574 105 99.6972V23C105 18.5817 101.418 15 97 15Z" stroke="#DCEDFE" stroke-width="7.5"/>
<path d="M100 40H68.6646C61.1179 40 55 46.1179 55 53.6646V53.6646C55 59.0418 58.1536 63.9191 63.0572 66.1257L105 85" stroke="#DCEDFE" stroke-width="7.5"/>
<circle cx="75" cy="55" r="5" fill="#DCEDFE"/>
</svg>
