<svg width="77" height="22" viewBox="0 0 77 22" fill="none" xmlns="http://www.w3.org/2000/svg">
<path d="M25.0586 0.0203575C21.3917 0.0203575 17.7523 0.0203575 14.0992 0.0203575C13.7554 0.0203575 13.6408 0.217464 13.54 0.437489C11.896 3.28865 10.2474 6.13982 8.59426 8.99099C8.51176 9.13309 8.47967 9.33936 8.25507 9.38978C6.94875 7.12535 5.64242 4.86551 4.29942 2.51398C5.18406 2.51398 5.95411 2.51398 6.71957 2.51398C6.86203 2.49596 7.00646 2.52522 7.13068 2.59727C7.25489 2.66932 7.35201 2.78017 7.40711 2.91278C7.92047 3.85247 8.47509 4.76924 9.04346 5.75019C9.50182 4.94801 9.91892 4.21001 10.3544 3.49493C10.5056 3.2474 10.4002 3.0778 10.2902 2.88986C9.79517 2.03268 9.2818 1.18924 8.80969 0.322893C8.76156 0.217346 8.68078 0.13007 8.57927 0.0739444C8.47775 0.0178189 8.36088 -0.00418202 8.24591 0.0111895C5.63784 0.0111895 3.02976 0.0111895 0.426276 0.0111895C0.293351 0.0111895 0.137508 -0.0484003 0 0.107451L8.25049 14.4229C8.47509 14.2945 8.52551 14.0882 8.62635 13.9186C10.7256 10.2882 12.8203 6.65169 14.9105 3.00904C14.9871 2.84079 15.1146 2.70079 15.2749 2.60871C15.4352 2.51663 15.6203 2.47709 15.8043 2.49565C18.3207 2.49565 20.8462 2.49565 23.3489 2.49565C23.5597 2.49565 23.8073 2.56899 23.9448 2.32604L25.2603 0.0341094C25.1934 0.025278 25.126 0.0206847 25.0586 0.0203575ZM8.04423 1.76223H8.0809C8.08231 1.77747 8.08231 1.79282 8.0809 1.80807H8.04423C8.04253 1.79283 8.04253 1.77746 8.04423 1.76223ZM3.91898 0.845453C3.84184 0.810591 3.77745 0.75259 3.73474 0.679491C3.69203 0.606392 3.67313 0.521817 3.68064 0.437489C3.6687 0.524225 3.68498 0.612501 3.72708 0.689269C3.76918 0.766036 3.83485 0.827224 3.9144 0.863789L3.91898 0.845453ZM4.18942 1.03798C4.16716 1.0142 4.14259 0.992705 4.11608 0.973802C4.14145 0.995829 4.16449 1.02041 4.18483 1.04714L4.18942 1.03798ZM4.03816 0.918795L3.98315 0.886708L4.03816 0.918795ZM3.69439 0.350396V0.423737V0.350396Z" fill="white"/>
<path d="M20.566 3.75205C20.4581 3.74494 20.3509 3.77336 20.2606 3.83296C20.1704 3.89256 20.1022 3.98006 20.0664 4.08209C19.6493 4.84759 19.1909 5.60393 18.7326 6.36485L11.3988 19.0713C11.2888 19.2638 11.11 19.4289 11.2888 19.7085C11.7471 20.4236 12.1367 21.1616 12.6134 22.0004L23.1557 3.77038C22.2115 3.75663 21.3865 3.77038 20.566 3.75205Z" fill="white"/>
<path d="M16.181 3.75195C15.9473 3.75195 15.8648 3.88489 15.7685 4.04532C13.5775 7.85299 11.3835 11.6545 9.18645 15.45C9.09019 15.615 9.01685 15.7479 9.13603 15.945C9.59439 16.6922 10.0115 17.4531 10.4744 18.237L18.8395 3.75654C17.8953 3.75654 17.0382 3.7657 16.181 3.75195Z" fill="white"/>
<path d="M34.9255 16.1091H34.9636L39.4417 4.13184H40.9376L35.6604 17.9262H34.1835L28.9277 4.13184H30.445L34.9255 16.1091Z" fill="white"/>
<path d="M47.3113 17.9193H45.9082V4.125H47.3113V17.9193Z" fill="white"/>
<path d="M58.4704 17.919H57.0673V5.3876H52.4512V4.13184H63.0865V5.3876H58.4704V17.919Z" fill="white"/>
<path d="M69.6278 16.6731H77.0002V17.9193H68.2246V4.125H76.7742V5.38789H69.6278V10.1208H76.3081V11.3575H69.6278V16.6731Z" fill="white"/>
</svg>
